# xmcd
#
# Track frame offsets:
#        150
#        21741
#        40826
#        63337
#        90983
#        108842
#        123859
#        151819
#        174136
#        191403
#        210948
#        232347
#        252093
#        274194
#        291801
#        303633
#
# Disc length: 4408 seconds
#
# Revision: 0
# Processed by: cddbd v1.5.1PL0 Copyright (c) Steve Scherf et al.
# Submitted via: ExactAudioCopy v0.95a4
#
DISCID=d3113610
DTITLE=Various Artist - Warp Essence Edge#3
DYEAR=1900
DGENRE=Club
TTITLE0=Topazz - The New Millenium (Freezzy Jam Mix)
TTITLE1=Joe Montana - The Classic E.P.
TTITLE2=Beatroute - Born This Way
TTITLE3=Studio 217 - Hey Everybody (Desert Remix)
TTITLE4=Joff Roach - Papa S Got A Brand New Groove
TTITLE5=Knuckleheadz - Raise Your Hands (Marc N-Joi Mix)
TTITLE6=West End Boys - Why Not (Original Mix)
TTITLE7=DJ Irene - Climb The Walls
TTITLE8=Lisa Lashes - We Came ,We Saw...
TTITLE9=Andy Farley - Concentrate (Original Mix)
TTITLE10=Mark Kavanagh - Bad Boy (Razor Babes Mix)
TTITLE11=MAX and Amino - Fiends From Planet X
TTITLE12=Night Stokers - Silence (Southside Spinners Rmx)
TTITLE13=Digitale - New York Doll (Original Mix)
TTITLE14=Jon The Dentist Vs Ollie Jaye - Imagination (K9o Remix)
TTITLE15=Zenith - Filp De Trax (Swan Remix)
EXTD=
EXTT0=
EXTT1=
EXTT2=
EXTT3=
EXTT4=
EXTT5=
EXTT6=
EXTT7=
EXTT8=
EXTT9=
EXTT10=
EXTT11=
EXTT12=
EXTT13=
EXTT14=
EXTT15=
PLAYORDER=
